<svg width="196" height="126" viewBox="0 0 196 126" fill="none" xmlns="http://www.w3.org/2000/svg">
<g clip-path="url(#clip0_2001_1390)">
<path d="M133.522 36.2582L129.051 39.7441C126.581 41.6693 126.14 45.232 128.065 47.7016L153.628 80.4933C155.553 82.9629 159.116 83.4042 161.586 81.479L176.491 69.8594C178.961 67.9342 179.402 64.3715 177.477 61.9019L151.914 29.1101C149.988 26.6406 146.426 26.1992 143.956 28.1244L139.484 31.6103M133.522 36.2582L135.846 39.2393L141.808 34.5914L139.484 31.6103M133.522 36.2582L139.484 31.6103M162.571 73.5215L168.534 68.8737" stroke="black" stroke-width="7.00513" stroke-linecap="round" stroke-linejoin="round"/>
</g>
<path d="M113.821 125.962C101.671 125.962 91.8954 116.093 91.8954 103.907C91.8954 95.5971 96.4072 88.3256 103.135 84.5301L90.6688 50.8092C90.5103 50.4496 90.3521 50.4096 89.9959 50.4096H79.5873C77.6878 50.4096 76.1444 48.8514 76.1444 46.8937C76.1444 44.9759 77.6878 43.4177 79.5873 43.4177H91.46C93.9141 43.4177 95.5367 44.2567 96.3279 46.3343L109.586 82.1725C110.971 81.893 112.396 81.7333 113.821 81.7333C125.891 81.7333 135.667 91.6818 135.667 103.907C135.667 116.093 125.891 125.962 113.821 125.962ZM115.087 72.5838C113.702 72.5039 112.356 71.9845 111.288 71.2654C107.528 68.8282 106.42 63.4744 108.992 59.6788C109.705 58.5601 110.734 57.6013 111.842 57.002C113.227 56.2028 114.375 56.922 114.691 58.4403L117.066 69.9869C117.343 71.5051 116.63 72.7437 115.087 72.5838ZM21.9251 125.962C9.77526 125.962 0 116.093 0 103.907C0 91.6818 9.77526 81.7333 21.9251 81.7333C27.5449 81.7333 32.6502 83.8906 36.4891 87.4066L50.6572 76.0198C61.7387 67.1901 69.5746 63.874 77.569 63.9538C88.8876 64.1137 94.824 70.9058 94.824 80.5746C94.824 88.0058 90.1146 93.959 82.041 96.3162L69.4559 110.7C68.1894 112.178 67.2791 112.697 65.2609 112.697H54.2985C52.3986 112.697 50.8552 111.139 50.8552 109.181C50.8552 107.263 52.3986 105.705 54.2985 105.705H63.559C64.3111 105.705 64.6275 105.505 64.9836 105.106L71.8303 97.3152C62.5698 96.7956 54.6148 92.8803 48.5597 86.4477L40.7633 92.7203C42.6628 95.9965 43.7711 99.8321 43.7711 103.907C43.7711 116.093 33.9958 125.962 21.9251 125.962ZM27.7823 72.7836C25.8827 72.7836 24.3392 71.2254 24.3392 69.2677C24.3392 67.3899 25.9223 65.7917 27.7823 65.7917H46.5017C48.3617 65.7917 49.9449 67.3899 49.9449 69.2677C49.9449 71.2254 48.4016 72.7836 46.5017 72.7836H27.7823ZM21.8064 109.501C18.6403 109.501 16.3053 106.984 16.3449 103.867C16.3845 100.671 18.6799 98.2339 21.8064 98.2339C22.2021 98.2339 22.5583 98.2741 22.9145 98.3139L31.0672 91.7615C28.5343 89.804 25.3682 88.6851 21.8855 88.6851C13.4954 88.6851 6.80708 95.4374 6.80708 103.867C6.80708 112.298 13.4954 119.05 21.8855 119.05C30.2361 119.05 36.9244 112.298 36.9244 103.867C36.9244 101.39 36.3704 99.113 35.381 97.0755L27.347 103.508C27.347 103.628 27.347 103.747 27.347 103.867C27.347 106.984 24.8933 109.501 21.8064 109.501ZM113.741 109.501C110.575 109.501 108.24 106.984 108.28 103.827C108.28 102.669 108.597 101.63 109.151 100.751L105.589 91.0822C101.433 93.7993 98.7027 98.4736 98.7027 103.867C98.7027 112.298 105.391 119.05 113.781 119.05C122.131 119.05 128.82 112.298 128.82 103.867C128.82 95.3972 122.131 88.6851 113.781 88.6851C113.187 88.6851 112.594 88.6851 112.04 88.7651L115.641 98.5536C117.818 99.3129 119.282 101.39 119.282 103.867C119.282 106.984 116.828 109.501 113.741 109.501Z" fill="black"/>
<line x1="93.2852" y1="3.50335" x2="97.3624" y2="20.3946" stroke="black" stroke-width="7.00513" stroke-linecap="round"/>
<line x1="116.036" y1="5.69507" x2="110.389" y2="22.1283" stroke="black" stroke-width="7.00513" stroke-linecap="round"/>
<line x1="72.7786" y1="11.4021" x2="84.3582" y2="24.3579" stroke="black" stroke-width="7.00513" stroke-linecap="round"/>
<defs>
<clipPath id="clip0_2001_1390">
<rect width="60.4779" height="60.4779" fill="white" transform="translate(110.331 49.5447) rotate(-37.9387)"/>
</clipPath>
</defs>
</svg>
