<svg width="66" height="86" viewBox="0 0 66 86" fill="none" xmlns="http://www.w3.org/2000/svg">
<path d="M59.5304 38.9481C58.452 37.5231 57.1392 36.2881 55.9202 35.0531C52.7789 32.2031 49.2155 30.1606 46.2149 27.168C39.231 20.2351 37.6826 8.79251 42.1317 0.00604464C42.1333 0.00285971 42.1304 -0.000756181 42.127 9.57181e-05C37.6765 1.0937 33.7879 3.56223 30.4613 6.26795C18.3179 16.148 13.5355 33.5806 19.2556 48.5431C19.4431 49.0181 19.6307 49.4931 19.6307 50.1106C19.6307 51.1556 18.9274 52.1056 17.9897 52.4856C16.9113 52.9606 15.786 52.6757 14.8952 51.9156C14.0044 51.1556 12.729 50.1106 11.7957 48.85C7.99636 43.7178 5.46275 40.3039 5.45981 32.1749C5.45981 32.1708 5.45429 32.1691 5.45201 32.1726C0.390233 39.8679 -0.436094 44.1784 0.173108 54.4807C0.454422 56.8557 0.735736 59.2307 1.53279 61.6057C2.18919 64.4557 3.4551 67.3057 4.86168 69.8232C9.92533 78.0408 18.693 83.9308 28.117 85.1183C38.1505 86.4008 48.8873 84.5483 56.5766 77.5183C65.1567 69.6332 68.1574 56.9982 63.7501 46.1681L63.1406 44.9331C62.156 42.7481 59.5304 38.9481 59.5304 38.9481ZM44.7145 68.8732C43.4017 70.0132 41.245 71.2482 39.5571 71.7232C34.3088 73.6222 29.0605 70.9662 25.9654 67.8334C25.9631 67.8311 25.9643 67.8272 25.9675 67.8265C31.5425 66.4946 34.8689 62.3164 35.8531 58.0907C36.6502 54.2907 35.1498 51.1556 34.5403 47.4981C33.9782 43.9863 34.0713 40.996 35.3339 37.722C35.3352 37.7186 35.34 37.7184 35.3416 37.7216C36.2312 39.5238 37.1677 41.3253 38.2912 42.7481C41.9014 47.4981 47.5745 49.5881 48.7936 56.0482C48.9811 56.7132 49.0749 57.3782 49.0749 58.0907C49.2155 61.9857 47.5277 66.2607 44.7145 68.8732Z" fill="black"/>
</svg>
