<svg width="102" height="96" viewBox="0 0 102 96" fill="none" xmlns="http://www.w3.org/2000/svg">
<path d="M57.5137 0.00035009C60.814 0.0125286 64.0889 0.336291 67.2217 0.869491C83.1309 3.57738 92.2751 10.7349 97.208 20.8998L98.0576 22.6507L96.1182 22.4994C95.8914 22.4817 95.6647 22.4634 95.4385 22.4457L95.7109 22.6927C96.3641 23.2828 97.045 23.9673 97.7041 24.7796V24.7806C100.254 27.9243 101.395 31.7869 101.396 39.2054C101.396 42.2756 100.852 45.5138 100.295 48.4115C100.119 49.3276 99.8467 50.5775 99.5898 51.7679C99.3299 52.973 99.0867 54.111 98.958 54.8412L98.9541 54.8578C99.7995 55.0953 100.583 55.2952 101.301 55.4554C100.934 61.0611 100.242 66.8693 99.3633 72.7396C88.1891 69.3433 86.5366 68.4205 82.4062 66.5765C83.2322 57.3571 80.7545 51.825 78.2764 47.2152C80.7545 49.059 82.4109 49.1497 86.5371 50.9027C89.2539 52.0569 91.9752 52.8736 94.4639 53.5785C94.611 52.8021 94.8329 51.7608 95.0557 50.7308C95.3121 49.5451 95.569 48.3686 95.7256 47.5541C96.278 44.6793 96.7441 41.8087 96.7441 39.2054C96.7441 32.4262 95.7548 29.7232 94.0752 27.6527C93.1813 26.5511 92.2074 25.7303 91.2363 24.975C90.8769 24.6954 90.4783 24.3889 90.1016 24.0941L87.2461 21.8587C84.6811 21.7105 82.1489 21.6157 79.6504 21.6312C75.3615 21.6579 71.2009 22.0046 67.1914 22.93V22.9291C65.1063 23.4109 63.6656 25.188 63.1289 27.4808L62.7959 28.9007L61.5127 28.2084C57.4635 26.0254 52.5409 24.3703 46.5635 23.3529C43.5348 22.8374 40.3835 22.5267 37.2217 22.515C32.8395 22.4989 28.4479 23.0603 24.3252 24.4437L22.043 25.2093L22.9346 22.973C27.173 12.3388 33.7498 6.29375 41.2539 3.05601C46.4146 0.829511 52.0156 -0.0198188 57.5137 0.00035009ZM90.8672 22.1029C91.6519 22.158 92.4396 22.217 93.2295 22.2748C91.5889 22.1479 89.9608 22.0274 88.3457 21.9252L90.8672 22.1029Z" fill="black"/>
<path d="M36.0534 25.0871C39.2846 25.099 42.496 25.4173 45.5768 25.9416C61.1942 28.5996 69.9967 35.5703 74.7468 45.3586C69.1258 44.9203 63.5819 44.454 58.1862 44.4875C53.844 44.5145 49.5976 44.8652 45.4841 45.8147C42.7561 46.4449 41.0446 48.8117 40.5124 51.5285C39.9803 54.2455 40.3577 57.4574 41.4225 60.8127L41.4743 60.9748L41.5583 61.1242C42.9561 63.5804 45.9282 65.5356 49.7155 67.6057C53.5028 69.676 58.1239 71.6925 62.7292 73.4455C66.4309 74.8546 70.1177 76.0866 73.3444 77.0276C73.6002 75.5129 73.9101 73.8823 74.194 72.2912C74.7222 69.3312 75.1686 66.3664 75.1686 63.6741C75.1685 56.7844 73.5443 53.1551 71.8835 50.9504C71.028 49.8149 70.0971 48.9705 69.1696 48.1936C68.8221 47.9025 68.4466 47.5905 68.0846 47.2854L65.444 45.0598L68.8874 45.3205L72.8864 45.635L73.2858 45.6682L73.5729 45.9475C74.198 46.5556 74.8487 47.2603 75.4782 48.0959C77.8674 51.2674 79.7144 55.9576 79.7145 63.6741C79.7145 66.8241 79.1962 70.1493 78.6638 73.133C78.334 74.981 78.013 76.6672 77.7614 78.1975C78.254 78.3112 78.724 78.4146 79.1716 78.5041C78.7619 84.1099 77.9901 89.9178 77.0095 95.7883C51.7777 88.9004 27.7589 81.4021 4.34734 73.593C-0.322938 65.5873 -1.04211 58.0253 1.29168 50.7707C5.3241 38.2368 12.2581 31.4941 20.238 28.051C25.2254 25.8991 30.6679 25.0673 36.0534 25.0871Z" fill="black"/>
</svg>
