<svg width="82" height="82" viewBox="0 0 82 82" fill="none" xmlns="http://www.w3.org/2000/svg">
<g clip-path="url(#clip0_2001_1400)">
<path d="M57.4004 57.3999H82.0004V81.9999L57.4004 57.3999Z" fill="black"/>
<path d="M73.8 0H8.2C3.67126 0 0 3.67127 0 8.2V57.4C0 61.9287 3.67126 65.6 8.2 65.6H73.8C78.3287 65.6 82 61.9287 82 57.4V8.2C82 3.67127 78.3287 0 73.8 0Z" fill="black"/>
</g>
<g clip-path="url(#clip1_2001_1400)">
<path d="M43.8234 14.5022C43.5388 14.0064 43.1284 13.5945 42.6337 13.3081C42.139 13.0217 41.5775 12.8708 41.0059 12.8708C40.4342 12.8708 39.8727 13.0217 39.378 13.3081C38.8833 13.5945 38.473 14.0064 38.1884 14.5022L18.4745 48.0448C17.1606 50.2815 18.7361 53.1249 21.292 53.1249H60.7169C63.2727 53.1249 64.8511 50.2787 63.5344 48.0448L43.8234 14.5022ZM41.0001 24.3749C42.5382 24.3749 43.7429 25.7032 43.5876 27.2355L42.5814 37.3182C42.5476 37.7143 42.3663 38.0832 42.0735 38.3521C41.7807 38.621 41.3977 38.7702 41.0001 38.7702C40.6026 38.7702 40.2195 38.621 39.9267 38.3521C39.6339 38.0832 39.4527 37.7143 39.4189 37.3182L38.4126 27.2355C38.3765 26.874 38.4165 26.5088 38.5301 26.1637C38.6436 25.8185 38.8282 25.5009 39.072 25.2314C39.3157 24.9619 39.6133 24.7465 39.9453 24.599C40.2774 24.4514 40.6367 24.3751 41.0001 24.3749ZM41.0059 41.6249C41.7684 41.6249 42.4996 41.9278 43.0388 42.467C43.578 43.0062 43.8809 43.7374 43.8809 44.4999C43.8809 45.2624 43.578 45.9937 43.0388 46.5329C42.4996 47.072 41.7684 47.3749 41.0059 47.3749C40.2434 47.3749 39.5121 47.072 38.9729 46.5329C38.4338 45.9937 38.1309 45.2624 38.1309 44.4999C38.1309 43.7374 38.4338 43.0062 38.9729 42.467C39.5121 41.9278 40.2434 41.6249 41.0059 41.6249Z" fill="white"/>
</g>
<defs>
<clipPath id="clip0_2001_1400">
<rect width="82" height="82" fill="white"/>
</clipPath>
<clipPath id="clip1_2001_1400">
<rect width="46" height="46" fill="white" transform="translate(18 10)"/>
</clipPath>
</defs>
</svg>
