<?xml version="1.0" encoding="UTF-8"?>
<svg id="a" data-name="Layer_1" xmlns="http://www.w3.org/2000/svg" viewBox="0 0 720 748.11">
  <path d="M658.05,81.01c-14.49,0-28.78,0-43.07,0-105.97-.04-211.94-.3-317.91-.08-142.15.28-213.81,71.43-214.25,212.31-.06,19.02-.76,38.1.46,57.05,6.08,94.19,75.67,167.33,170,171.5,90.85,4.02,181.98,1.57,272.99,1.94,14.61.06,29.22,0,46.13,0v73.95c-120.32,0-238.73,8.13-355.49-2.28C99.24,584.91,15.95,489.24,3.97,371.69c-4.39-43.05-5.43-87.13-1.65-130.19C13.95,108.94,115.58,8.96,253.62,2.87c130.15-5.74,260.76-1.15,391.16-.89h13.27v79.03Z"/>
  <path d="M720,748.11H236.61v-78.44h402.31v-298.6h-256.41v-76.09h337.49v453.13Z"/>
  <path d="M309.1,454.35h-72.81V150.76h72.81v303.59Z"/>
</svg>